<svg width="24" height="24" viewBox="0 0 24 24" fill="none" xmlns="http://www.w3.org/2000/svg">
<g clip-path="url(#clip0_3_83)">
<path d="M18.19 2H9.81C6.17 2 4 4.17 4 7.81V16.18C4 19.83 6.17 22 9.81 22H18.18C21.82 22 23.99 19.83 23.99 16.19V7.81C24 4.17 21.83 2 18.19 2ZM14 15.88C11.86 15.88 10.12 14.14 10.12 12C10.12 9.86 11.86 8.12 14 8.12C16.14 8.12 17.88 9.86 17.88 12C17.88 14.14 16.14 15.88 14 15.88ZM19.92 6.88C19.87 7 19.8 7.11 19.71 7.21C19.61 7.3 19.5 7.37 19.38 7.42C19.198 7.49725 18.9971 7.51853 18.803 7.48113C18.6089 7.44372 18.4303 7.34933 18.29 7.21C18.2 7.11 18.13 7 18.08 6.88C18.0286 6.75982 18.0015 6.63069 18 6.5C18 6.37 18.03 6.24 18.08 6.12C18.13 5.99 18.2 5.89 18.29 5.79C18.52 5.56 18.87 5.45 19.19 5.52C19.26 5.53 19.32 5.55 19.38 5.58C19.44 5.6 19.5 5.63 19.56 5.67C19.61 5.7 19.66 5.75 19.71 5.79C19.8 5.89 19.87 5.99 19.92 6.12C19.97 6.24 20 6.37 20 6.5C20 6.63 19.97 6.76 19.92 6.88Z" fill="white"/>
</g>
<defs>
<clipPath id="clip0_3_83">
<rect width="24" height="24" fill="white"/>
</clipPath>
</defs>
</svg>
